<svg width="30" height="33" viewBox="0 0 30 33" fill="none" xmlns="http://www.w3.org/2000/svg">
<path d="M23.75 10.6667C23.75 8.34604 22.8281 6.12045 21.1872 4.4795C19.5462 2.83856 17.3206 1.91669 15 1.91669C12.6794 1.91669 10.4538 2.83856 8.81282 4.4795C7.17187 6.12045 6.25 8.34604 6.25 10.6667C6.25 20.875 1.875 23.7917 1.875 23.7917H28.125C28.125 23.7917 23.75 20.875 23.75 10.6667Z" stroke="#E7ECF2" stroke-width="2" stroke-linecap="round" stroke-linejoin="round"/>
<path d="M17.5229 29.625C17.2666 30.067 16.8985 30.4339 16.4558 30.6889C16.013 30.9439 15.511 31.0782 15 31.0782C14.4891 31.0782 13.9871 30.9439 13.5443 30.6889C13.1015 30.4339 12.7335 30.067 12.4771 29.625" stroke="#E7ECF2" stroke-width="2" stroke-linecap="round" stroke-linejoin="round"/>
</svg>
