<svg width="26" height="24" viewBox="0 0 26 24" fill="none" xmlns="http://www.w3.org/2000/svg">
<path d="M3.21701 20.1433V23.0782H0.421875V10.7097L3.7411 0.717041H22.2589L25.5781 10.7097V23.0782H22.783V20.1433H3.21701ZM3.32183 8.61331H22.6782L20.7565 2.8134H5.24349L3.32183 8.61331ZM6.2134 16.2999C6.75475 16.2999 7.20589 16.1165 7.56695 15.7496C7.92801 15.3828 8.10851 14.9373 8.10851 14.4132C8.10851 13.8698 7.92508 13.4078 7.55821 13.0272C7.19135 12.6468 6.74588 12.4566 6.22179 12.4566C5.67834 12.4566 5.21638 12.646 4.83575 13.0247C4.4554 13.4037 4.26519 13.8638 4.26519 14.4048C4.26519 14.9462 4.45456 15.3973 4.8333 15.7584C5.21225 16.1194 5.67233 16.2999 6.2134 16.2999ZM19.8132 16.2999C20.3566 16.2999 20.8186 16.1165 21.1992 15.7496C21.5795 15.3828 21.7697 14.9373 21.7697 14.4132C21.7697 13.8698 21.5804 13.4078 21.2016 13.0272C20.8227 12.6468 20.3626 12.4566 19.8215 12.4566C19.2802 12.4566 18.8291 12.646 18.468 13.0247C18.1069 13.4037 17.9264 13.8638 17.9264 14.4048C17.9264 14.9462 18.1099 15.3973 18.4767 15.7584C18.8436 16.1194 19.2891 16.2999 19.8132 16.2999ZM2.51823 18.0469H23.4818V10.7097H2.51823V18.0469Z" fill="#E7ECF2"/>
</svg>
