<svg width="35" height="32" viewBox="0 0 35 32" fill="none" xmlns="http://www.w3.org/2000/svg">
<path d="M31.0325 3.65222C30.2506 2.81139 29.3222 2.14438 28.3004 1.6893C27.2786 1.23423 26.1834 1 25.0774 1C23.9714 1 22.8762 1.23423 21.8544 1.6893C20.8326 2.14438 19.9042 2.81139 19.1223 3.65222L17.4996 5.39642L15.8769 3.65222C14.2975 1.95459 12.1554 1.00088 9.92177 1.00088C7.68818 1.00088 5.54607 1.95459 3.96668 3.65222C2.38729 5.34984 1.5 7.65231 1.5 10.0531C1.5 12.4539 2.38729 14.7564 3.96668 16.454L5.5894 18.1982L17.4996 31L29.4098 18.1982L31.0325 16.454C31.8148 15.6136 32.4353 14.6157 32.8587 13.5174C33.2821 12.4191 33.5 11.2419 33.5 10.0531C33.5 8.86428 33.2821 7.68709 32.8587 6.5888C32.4353 5.49052 31.8148 4.49265 31.0325 3.65222Z" stroke="#E7ECF2" stroke-width="2" stroke-linecap="round" stroke-linejoin="round"/>
</svg>
