<svg width="36" height="35" viewBox="0 0 36 35" fill="none" xmlns="http://www.w3.org/2000/svg">
<path d="M18 21.875C20.4162 21.875 22.375 19.9162 22.375 17.5C22.375 15.0838 20.4162 13.125 18 13.125C15.5838 13.125 13.625 15.0838 13.625 17.5C13.625 19.9162 15.5838 21.875 18 21.875Z" stroke="#E7ECF2" stroke-width="2" stroke-linecap="round" stroke-linejoin="round"/>
<path d="M28.7916 21.875C28.5975 22.3148 28.5396 22.8028 28.6254 23.2758C28.7112 23.7489 28.9367 24.1854 29.2729 24.5291L29.3604 24.6166C29.6316 24.8875 29.8467 25.2092 29.9935 25.5633C30.1403 25.9174 30.2158 26.2969 30.2158 26.6802C30.2158 27.0635 30.1403 27.443 29.9935 27.7971C29.8467 28.1512 29.6316 28.4728 29.3604 28.7437C29.0895 29.0149 28.7678 29.23 28.4138 29.3768C28.0597 29.5236 27.6801 29.5991 27.2969 29.5991C26.9136 29.5991 26.534 29.5236 26.1799 29.3768C25.8259 29.23 25.5042 29.0149 25.2333 28.7437L25.1458 28.6562C24.8021 28.32 24.3656 28.0945 23.8925 28.0087C23.4194 27.9229 22.9315 27.9809 22.4916 28.175C22.0603 28.3598 21.6925 28.6668 21.4333 29.0581C21.1742 29.4493 21.0352 29.9078 21.0333 30.3771V30.625C21.0333 31.3985 20.726 32.1404 20.179 32.6874C19.6321 33.2344 18.8902 33.5416 18.1166 33.5416C17.3431 33.5416 16.6012 33.2344 16.0543 32.6874C15.5073 32.1404 15.2 31.3985 15.2 30.625V30.4937C15.1887 30.011 15.0324 29.5429 14.7516 29.1502C14.4707 28.7574 14.0781 28.4583 13.625 28.2916C13.1851 28.0975 12.6972 28.0396 12.2241 28.1254C11.751 28.2112 11.3145 28.4367 10.9708 28.7729L10.8833 28.8604C10.6124 29.1316 10.2908 29.3467 9.93668 29.4935C9.5826 29.6403 9.20307 29.7158 8.81977 29.7158C8.43648 29.7158 8.05694 29.6403 7.70286 29.4935C7.34878 29.3467 7.02711 29.1316 6.75623 28.8604C6.48505 28.5895 6.26992 28.2678 6.12314 27.9138C5.97636 27.5597 5.90081 27.1801 5.90081 26.7969C5.90081 26.4136 5.97636 26.034 6.12314 25.6799C6.26992 25.3259 6.48505 25.0042 6.75623 24.7333L6.84373 24.6458C7.17993 24.3021 7.40546 23.8656 7.49124 23.3925C7.57701 22.9194 7.51911 22.4315 7.32498 21.9916C7.14012 21.5603 6.83316 21.1925 6.44191 20.9333C6.05065 20.6742 5.59217 20.5352 5.1229 20.5333H4.87498C4.10143 20.5333 3.35957 20.226 2.81258 19.679C2.2656 19.1321 1.95831 18.3902 1.95831 17.6166C1.95831 16.8431 2.2656 16.1012 2.81258 15.5543C3.35957 15.0073 4.10143 14.7 4.87498 14.7H5.00623C5.48893 14.6887 5.95707 14.5324 6.34979 14.2516C6.74251 13.9707 7.04165 13.5781 7.20831 13.125C7.40244 12.6851 7.46035 12.1972 7.37457 11.7241C7.28879 11.251 7.06326 10.8145 6.72706 10.4708L6.63956 10.3833C6.36838 10.1124 6.15325 9.79076 6.00647 9.43668C5.85969 9.0826 5.78414 8.70307 5.78414 8.31977C5.78414 7.93648 5.85969 7.55694 6.00647 7.20286C6.15325 6.84878 6.36838 6.52711 6.63956 6.25623C6.91044 5.98505 7.23212 5.76992 7.58619 5.62314C7.94027 5.47636 8.31981 5.40081 8.7031 5.40081C9.0864 5.40081 9.46594 5.47636 9.82001 5.62314C10.1741 5.76992 10.4958 5.98505 10.7666 6.25623L10.8541 6.34373C11.1978 6.67993 11.6344 6.90546 12.1075 6.99124C12.5805 7.07701 13.0685 7.01911 13.5083 6.82498H13.625C14.0563 6.64012 14.4242 6.33316 14.6833 5.94191C14.9424 5.55065 15.0814 5.09217 15.0833 4.6229V4.37498C15.0833 3.60143 15.3906 2.85957 15.9376 2.31258C16.4846 1.7656 17.2264 1.45831 18 1.45831C18.7735 1.45831 19.5154 1.7656 20.0624 2.31258C20.6094 2.85957 20.9166 3.60143 20.9166 4.37498V4.50623C20.9185 4.9755 21.0576 5.43399 21.3167 5.82524C21.5758 6.2165 21.9436 6.52345 22.375 6.70831C22.8148 6.90244 23.3028 6.96035 23.7758 6.87457C24.2489 6.78879 24.6854 6.56326 25.0291 6.22706L25.1166 6.13956C25.3875 5.86838 25.7092 5.65325 26.0633 5.50647C26.4174 5.35969 26.7969 5.28414 27.1802 5.28414C27.5635 5.28414 27.943 5.35969 28.2971 5.50647C28.6512 5.65325 28.9728 5.86838 29.2437 6.13956C29.5149 6.41044 29.73 6.73212 29.8768 7.08619C30.0236 7.44027 30.0991 7.81981 30.0991 8.2031C30.0991 8.5864 30.0236 8.96594 29.8768 9.32001C29.73 9.67409 29.5149 9.99577 29.2437 10.2666L29.1562 10.3541C28.82 10.6978 28.5945 11.1344 28.5087 11.6075C28.4229 12.0805 28.4809 12.5685 28.675 13.0083V13.125C28.8598 13.5563 29.1668 13.9242 29.5581 14.1833C29.9493 14.4424 30.4078 14.5814 30.8771 14.5833H31.125C31.8985 14.5833 32.6404 14.8906 33.1874 15.4376C33.7344 15.9846 34.0416 16.7264 34.0416 17.5C34.0416 18.2735 33.7344 19.0154 33.1874 19.5624C32.6404 20.1094 31.8985 20.4166 31.125 20.4166H30.9937C30.5245 20.4185 30.066 20.5576 29.6747 20.8167C29.2835 21.0758 28.9765 21.4436 28.7916 21.875Z" stroke="#E7ECF2" stroke-width="2" stroke-linecap="round" stroke-linejoin="round"/>
</svg>
